<svg id="Vrstva_1" data-name="Vrstva 1" xmlns="http://www.w3.org/2000/svg" viewBox="0 0 142.6 141.9"><defs><style>.cls-1,.cls-2{fill:#ffffff;}.cls-1{fill-rule:evenodd;}</style></defs><g id="Symbol"><path id="Path" class="cls-1" d="M106.3,130H130v17.7a41.4,41.4,0,0,1-82.8,0V70.9H70.9v76.9a17.7,17.7,0,0,0,35.4,0Z" transform="translate(-47.2 -47.2)"/><path id="Path-2" class="cls-1" d="M130,130V106.3h17.7a17.75,17.75,0,0,0,.3-35.5H70.8V47.2h77.6a41.4,41.4,0,1,1,0,82.8Z" transform="translate(-47.2 -47.2)"/><path id="TM" class="cls-2" d="M172.8,182.1v-7.4h2.9v-2h-7.9v2h2.9v7.4Zm5.8,0v-6.2l2.5,6.2h1.7l2.5-6.3v6.3h2.1v-9.5h-2.9L182,179l-2.6-6.4h-2.7v9.5Z" transform="translate(-47.2 -47.2)"/></g></svg>